<svg viewBox="0 0 800 600" height="600" width="800" xmlns="http://www.w3.org/2000/svg" version="1.1"><rect x="0" y="0" width="800" height="600" fill="#343434ff"></rect><g transform-origin="400 300" transform="scale(1, 1)"><linearGradient id="linear-gradient-r5"><stop offset="0%" stop-color="#fd7f08ff" stop-opacity="100%"></stop><stop offset="100%" stop-color="#fdb508ff" stop-opacity="100%"></stop></linearGradient><filter id="shadow-r5" x="-20%" width="150%" y="-20%" height="150%"><feDropShadow dx="-27" dy="-2" stdDeviation="10" flood-color="#00000000"></feDropShadow></filter><path d="M0 0 0,459.38582507669923 C 28.896850640326743,447.58708545398713 121.55065040419498,419.6462406672339 169.98147435486317,389.98147435486317 C 218.41229830553135,360.31670804249245 242.6793394261102,317.4793394261102 284.8871997098128,284.8871997098128 C 327.0950599935154,252.29505999351542 387.6431779430111,246.69382938613495 418.26300543546677,198.26300543546677 C 448.88283292792244,149.83218148479858 457.05789149928097,33.70471092402936 465.0038320183754,0 L0 0Z" fill="none" stroke-linecap="round" stroke-width="1" style="transition: all 0.4s cubic-bezier(0.16, 1, 0.3, 1) 0s; fill: url(&quot;#linear-gradient-r5&quot;);" filter="url(#shadow-r5)"></path></g><g transform-origin="400 300" transform="scale(-1, -1)"><linearGradient id="linear-gradient-r5"><stop offset="0%" stop-color="#fd7f08ff" stop-opacity="100%"></stop><stop offset="100%" stop-color="#fdb508ff" stop-opacity="100%"></stop></linearGradient><filter id="shadow-r5" x="-20%" width="150%" y="-20%" height="150%"><feDropShadow dx="-27" dy="-2" stdDeviation="10" flood-color="#00000000"></feDropShadow></filter><path d="M0 0 0,459.38582507669923 C 28.896850640326743,447.58708545398713 121.55065040419498,419.6462406672339 169.98147435486317,389.98147435486317 C 218.41229830553135,360.31670804249245 242.6793394261102,317.4793394261102 284.8871997098128,284.8871997098128 C 327.0950599935154,252.29505999351542 387.6431779430111,246.69382938613495 418.26300543546677,198.26300543546677 C 448.88283292792244,149.83218148479858 457.05789149928097,33.70471092402936 465.0038320183754,0 L0 0Z" fill="none" stroke-linecap="round" stroke-width="1" style="transition: all 0.4s cubic-bezier(0.16, 1, 0.3, 1) 0s; fill: url(&quot;#linear-gradient-r5&quot;);" filter="url(#shadow-r5)"></path></g></svg>