<svg width="1000" height="1000" viewBox="0 0 1000 1000" fill="none" xmlns="http://www.w3.org/2000/svg">
<rect x="4" y="4" width="992" height="992" rx="59" fill="#343434" stroke="#EBEBEB" stroke-width="8"/>
<rect x="76" y="62" width="848" height="377" fill="#CDF3FF" stroke="#6F8F99" stroke-width="16"/>
<rect x="124.011" y="552" width="185" height="96" fill="#CEFFA7"/>
<line x1="304.011" y1="552" x2="304.011" y2="648" stroke="#718A65" stroke-width="14"/>
<line x1="131.011" y1="552" x2="131.011" y2="648" stroke="#718A65" stroke-width="14"/>
<line y1="-7" x2="173.012" y2="-7" transform="matrix(0.999999 -0.00136103 0.00311526 0.999995 124 648.332)" stroke="#718A65" stroke-width="14"/>
<ellipse cx="217.5" cy="556" rx="31.5" ry="26" fill="#718A65"/>
<line x1="52.997" y1="539" x2="382.003" y2="539" stroke="#919191" stroke-width="26"/>
<path d="M575.5 615C575.5 622.087 569.712 629.429 558.241 635.209C546.971 640.887 531.158 644.5 513.5 644.5C495.842 644.5 480.029 640.887 468.759 635.209C457.288 629.429 451.5 622.087 451.5 615C451.5 607.913 457.288 600.571 468.759 594.791C480.029 589.113 495.842 585.5 513.5 585.5C531.158 585.5 546.971 589.113 558.241 594.791C569.712 600.571 575.5 607.913 575.5 615Z" fill="#E0A100" stroke="#795700" stroke-width="7"/>
<path d="M881.5 615C881.5 622.087 875.712 629.429 864.241 635.209C852.971 640.887 837.158 644.5 819.5 644.5C801.842 644.5 786.029 640.887 774.759 635.209C763.288 629.429 757.5 622.087 757.5 615C757.5 607.913 763.288 600.571 774.759 594.791C786.029 589.113 801.842 585.5 819.5 585.5C837.158 585.5 852.971 589.113 864.241 594.791C875.712 600.571 881.5 607.913 881.5 615Z" fill="#E0A100" stroke="#795700" stroke-width="7"/>
<path d="M728.5 615C728.5 622.087 722.712 629.429 711.241 635.209C699.971 640.887 684.158 644.5 666.5 644.5C648.842 644.5 633.029 640.887 621.759 635.209C610.288 629.429 604.5 622.087 604.5 615C604.5 607.913 610.288 600.571 621.759 594.791C633.029 589.113 648.842 585.5 666.5 585.5C684.158 585.5 699.971 589.113 711.241 594.791C722.712 600.571 728.5 607.913 728.5 615Z" fill="#E0A100" stroke="#795700" stroke-width="7"/>
<path d="M575.5 815C575.5 822.087 569.712 829.429 558.241 835.209C546.971 840.887 531.158 844.5 513.5 844.5C495.842 844.5 480.029 840.887 468.759 835.209C457.288 829.429 451.5 822.087 451.5 815C451.5 807.913 457.288 800.571 468.759 794.791C480.029 789.113 495.842 785.5 513.5 785.5C531.158 785.5 546.971 789.113 558.241 794.791C569.712 800.571 575.5 807.913 575.5 815Z" fill="#E0A100" stroke="#795700" stroke-width="7"/>
<path d="M881.5 815C881.5 822.087 875.712 829.429 864.241 835.209C852.971 840.887 837.158 844.5 819.5 844.5C801.842 844.5 786.029 840.887 774.759 835.209C763.288 829.429 757.5 822.087 757.5 815C757.5 807.913 763.288 800.571 774.759 794.791C786.029 789.113 801.842 785.5 819.5 785.5C837.158 785.5 852.971 789.113 864.241 794.791C875.712 800.571 881.5 807.913 881.5 815Z" fill="#E0A100" stroke="#795700" stroke-width="7"/>
<path d="M728.5 815C728.5 822.087 722.712 829.429 711.241 835.209C699.971 840.887 684.158 844.5 666.5 844.5C648.842 844.5 633.029 840.887 621.759 835.209C610.288 829.429 604.5 822.087 604.5 815C604.5 807.913 610.288 800.571 621.759 794.791C633.029 789.113 648.842 785.5 666.5 785.5C684.158 785.5 699.971 789.113 711.241 794.791C722.712 800.571 728.5 807.913 728.5 815Z" fill="#E0A100" stroke="#795700" stroke-width="7"/>
<path d="M575.5 715C575.5 722.087 569.712 729.429 558.241 735.209C546.971 740.887 531.158 744.5 513.5 744.5C495.842 744.5 480.029 740.887 468.759 735.209C457.288 729.429 451.5 722.087 451.5 715C451.5 707.913 457.288 700.571 468.759 694.791C480.029 689.113 495.842 685.5 513.5 685.5C531.158 685.5 546.971 689.113 558.241 694.791C569.712 700.571 575.5 707.913 575.5 715Z" fill="#E0A100" stroke="#795700" stroke-width="7"/>
<path d="M881.5 715C881.5 722.087 875.712 729.429 864.241 735.209C852.971 740.887 837.158 744.5 819.5 744.5C801.842 744.5 786.029 740.887 774.759 735.209C763.288 729.429 757.5 722.087 757.5 715C757.5 707.913 763.288 700.571 774.759 694.791C786.029 689.113 801.842 685.5 819.5 685.5C837.158 685.5 852.971 689.113 864.241 694.791C875.712 700.571 881.5 707.913 881.5 715Z" fill="#E0A100" stroke="#795700" stroke-width="7"/>
<path d="M728.5 715C728.5 722.087 722.712 729.429 711.241 735.209C699.971 740.887 684.158 744.5 666.5 744.5C648.842 744.5 633.029 740.887 621.759 735.209C610.288 729.429 604.5 722.087 604.5 715C604.5 707.913 610.288 700.571 621.759 694.791C633.029 689.113 648.842 685.5 666.5 685.5C684.158 685.5 699.971 689.113 711.241 694.791C722.712 700.571 728.5 707.913 728.5 715Z" fill="#E0A100" stroke="#795700" stroke-width="7"/>
<path d="M376.729 290.25H300.729L286.729 329H262.729L325.729 155.75H351.979L414.729 329H390.729L376.729 290.25ZM370.229 271.75L338.729 183.75L307.229 271.75H370.229ZM549.436 154.75V173.25H501.936V329H479.186V173.25H431.436V154.75H549.436ZM754.189 156V329H731.439V200L673.939 329H657.939L600.189 199.75V329H577.439V156H601.939L665.939 299L729.939 156H754.189Z" fill="#6F8F99"/>
</svg>
